<svg xmlns="http://www.w3.org/2000/svg" viewBox="0 0 29.76 22.82"><defs><style>.cls-1{fill:none;stroke:#020036;stroke-linecap:round;stroke-linejoin:round;}</style></defs><title>cash-icon</title><g id="Layer_2" data-name="Layer 2"><g id="Layer_1-2" data-name="Layer 1"><polyline class="cls-1" points="16.34 13.41 9.77 16.28 0.5 11.63"/><line class="cls-1" x1="29.26" y1="8.18" x2="23.39" y2="10.62"/><polyline class="cls-1" points="29.26 5.18 19.86 0.5 0.5 8.63"/><line class="cls-1" x1="23.39" y1="7.77" x2="29.26" y2="5.18"/><polyline class="cls-1" points="0.5 8.63 9.77 13.28 16.34 10.39"/><polyline class="cls-1" points="16.34 16.52 9.77 19.36 0.5 14.71"/><line class="cls-1" x1="29.26" y1="11.26" x2="23.39" y2="13.72"/><polyline class="cls-1" points="29.26 14.22 9.77 22.32 0.5 17.67"/><polyline class="cls-1" points="16.34 19.59 16.34 10.39 7.38 5.74"/><polyline class="cls-1" points="13.96 2.98 23.39 7.77 23.39 16.62"/><path class="cls-1" d="M16.12,8.14a1,1,0,0,0,1.21-.53.9.9,0,0,0-.46-1.17,1.36,1.36,0,0,0-1.48.2,1.34,1.34,0,0,1-1.47.21.79.79,0,0,1-.4-1.14.84.84,0,0,1,.8-.43"/><line class="cls-1" x1="13.15" y1="5.23" x2="13.7" y2="5.5"/><line class="cls-1" x1="17.26" y1="7.77" x2="17.76" y2="8.02"/></g></g></svg>
