<svg xmlns="http://www.w3.org/2000/svg" viewBox="0 0 29.54 16.61"><defs><style>.cls-1{fill:none;stroke:#020036;stroke-linecap:round;stroke-linejoin:round;}</style></defs><title>Step 6</title><g id="Layer_2" data-name="Layer 2"><g id="Layer_1-2" data-name="Layer 1"><line class="cls-1" x1="20.14" y1="11.98" x2="17.46" y2="9.73"/><line class="cls-1" x1="17.68" y1="13.34" x2="15.49" y2="11.56"/><path class="cls-1" d="M5.76,8.62c.78,2.23,7,7.06,7,7.06C14.3,17,15.66,15,14.42,14l-1-.92"/><path class="cls-1" d="M13.47,13l2.59,2.25a1.26,1.26,0,1,0,1.71-1.84l.65.55a1.33,1.33,0,0,0,1.72-2l.1.09A1.33,1.33,0,0,0,22,10l-6.4-5.22a4.37,4.37,0,0,1-1.71.34S12,8,10.65,7s0-5.17,3.79-5.76c0,0,1.7-.49,5.88,1.67l1.55-.47"/><rect class="cls-1" x="-0.78" y="3.48" width="9.76" height="4.72" transform="translate(-2.64 8.19) rotate(-74.19)"/><rect class="cls-1" x="23.08" y="1.21" width="4.72" height="9.76" transform="translate(-0.7 7.16) rotate(-15.81)"/><path class="cls-1" d="M7.52,2.42s.22-.4,5-.5"/><path class="cls-1" d="M22.36,10.71a2,2,0,0,0,1.82-.41"/></g></g></svg>
