<svg xmlns="http://www.w3.org/2000/svg" viewBox="0 0 29.97 21.36"><defs><style>.cls-1{fill:none;stroke:#020036;stroke-linecap:round;stroke-linejoin:round;}</style></defs><title>Step 1</title><g id="Layer_2" data-name="Layer 2"><g id="Layer_1-2" data-name="Layer 1"><path class="cls-1" d="M18.7,14.5H3.1A2.67,2.67,0,0,1,.5,11.78V3.09A2.56,2.56,0,0,1,3.1.5H26.78a2.64,2.64,0,0,1,2.68,2.59v8.69a2.74,2.74,0,0,1-2.68,2.71H23.53"/><path class="cls-1" d="M25.18,19.22,23.34,16.8,25,16.47a.31.31,0,0,0,.15-.54l-6.67-6a.31.31,0,0,0-.51.28L19.48,19a.31.31,0,0,0,.52.17l1.32-1.32L23,20.7a.31.31,0,0,0,.44.1l1.69-1.14A.31.31,0,0,0,25.18,19.22Z"/></g></g></svg>
