<svg xmlns="http://www.w3.org/2000/svg" viewBox="0 0 27.94 28.55"><defs><style>.cls-1{fill:none;stroke:#020036;stroke-linecap:round;stroke-linejoin:round;}</style></defs><title>Step 5</title><g id="Layer_2" data-name="Layer 2"><g id="Layer_1-2" data-name="Layer 1"><polyline class="cls-1" points="15.12 3.64 18.28 0.5 21.44 3.64"/><path class="cls-1" d="M1.76,19.09s16.52-.51,16.52-15.58V.5"/><circle class="cls-1" cx="5.89" cy="7.57" r="5.39"/><path class="cls-1" d="M3.95,9.62a3.31,3.31,0,0,0,1.91.8A1.59,1.59,0,0,0,7.55,8.94c0-.81-.81-1.22-1.69-1.48S4.17,6.8,4.17,6A1.59,1.59,0,0,1,5.86,4.51a1.74,1.74,0,0,1,1.47.74"/><line class="cls-1" x1="5.86" y1="3.7" x2="5.86" y2="4.51"/><line class="cls-1" x1="5.86" y1="10.41" x2="5.86" y2="11.22"/><rect class="cls-1" x="19.44" y="13.05" width="2" height="15"/><rect class="cls-1" x="13.44" y="18.05" width="2" height="10"/><rect class="cls-1" x="8.44" y="22.05" width="2" height="6"/><rect class="cls-1" x="2.44" y="25.05" width="2" height="3"/><rect class="cls-1" x="25.44" y="2.05" width="2" height="26"/></g></g></svg>
