<svg xmlns="http://www.w3.org/2000/svg" viewBox="0 0 30 30"><defs><style>.cls-1{fill:none;stroke:#020036;stroke-linecap:round;stroke-linejoin:round;}</style></defs><title>Step 3</title><g id="Layer_2" data-name="Layer 2"><g id="Layer_1-2" data-name="Layer 1"><path class="cls-1" d="M19.62,14.33,13.87,9.84a.85.85,0,0,0-1.37.67v9a.85.85,0,0,0,1.37.67l5.75-4.49A.85.85,0,0,0,19.62,14.33Z"/><rect class="cls-1" x="0.5" y="0.5" width="29" height="29"/><line class="cls-1" x1="0.5" y1="6.5" x2="29.5" y2="6.5"/><line class="cls-1" x1="0.5" y1="23.5" x2="29.5" y2="23.5"/><line class="cls-1" x1="3.5" y1="2.5" x2="3.5" y2="4.5"/><line class="cls-1" x1="7.5" y1="2.5" x2="7.5" y2="4.5"/><line class="cls-1" x1="11.5" y1="2.5" x2="11.5" y2="4.5"/><line class="cls-1" x1="15.5" y1="2.5" x2="15.5" y2="4.5"/><line class="cls-1" x1="19.5" y1="2.5" x2="19.5" y2="4.5"/><line class="cls-1" x1="23.5" y1="2.5" x2="23.5" y2="4.5"/><line class="cls-1" x1="27.5" y1="2.5" x2="27.5" y2="4.5"/><line class="cls-1" x1="2.5" y1="25.5" x2="2.5" y2="27.5"/><line class="cls-1" x1="6.5" y1="25.5" x2="6.5" y2="27.5"/><line class="cls-1" x1="10.5" y1="25.5" x2="10.5" y2="27.5"/><line class="cls-1" x1="14.5" y1="25.5" x2="14.5" y2="27.5"/><line class="cls-1" x1="18.5" y1="25.5" x2="18.5" y2="27.5"/><line class="cls-1" x1="22.5" y1="25.5" x2="22.5" y2="27.5"/><line class="cls-1" x1="26.5" y1="25.5" x2="26.5" y2="27.5"/></g></g></svg>
