<svg xmlns="http://www.w3.org/2000/svg" viewBox="0 0 29.74 21.06"><defs><style>.cls-1{fill:none;stroke:#020036;stroke-linecap:round;stroke-linejoin:round;}</style></defs><title>Step 2</title><g id="Layer_2" data-name="Layer 2"><g id="Layer_1-2" data-name="Layer 1"><path class="cls-1" d="M27.4,15.52V1.45A1,1,0,0,0,26.46.5H3.28a1,1,0,0,0-.95.95V15.52"/><path class="cls-1" d="M16.42,17.56v.38a.54.54,0,0,1-.54.54h-2a.54.54,0,0,1-.54-.54v-.38H.5v2a1,1,0,0,0,1,1H28.24a1,1,0,0,0,1-1v-2Z"/><circle class="cls-1" cx="15.3" cy="9.09" r="4.46"/><path class="cls-1" d="M16.83,8.84,14.71,7.19a.31.31,0,0,0-.5.25v3.31a.31.31,0,0,0,.5.25l2.12-1.66A.31.31,0,0,0,16.83,8.84Z"/></g></g></svg>
