<svg xmlns="http://www.w3.org/2000/svg" viewBox="0 0 27.44 29.99"><defs><style>.cls-1{fill:none;stroke:#020036;stroke-linecap:round;stroke-linejoin:round;}</style></defs><title>Step 4</title><g id="Layer_2" data-name="Layer 2"><g id="Layer_1-2" data-name="Layer 1"><path class="cls-1" d="M14,.5H3A2.53,2.53,0,0,0,.5,3.06V26.93A2.53,2.53,0,0,0,3,29.49H14a2.53,2.53,0,0,0,2.5-2.56V3.06A2.53,2.53,0,0,0,14,.5Z"/><ellipse class="cls-1" cx="8.48" cy="26.5" rx="0.99" ry="1.01"/><path class="cls-1" d="M20.75,19.21a6.61,6.61,0,0,0,0-10.06"/><path class="cls-1" d="M23.88,21.65a10.65,10.65,0,0,0,0-14.94"/><line class="cls-1" x1="0.5" y1="5.49" x2="16.46" y2="5.49"/><line class="cls-1" x1="0.5" y1="23.49" x2="16.46" y2="23.49"/></g></g></svg>
